<?xml version="1.0" encoding="utf-8"?>
<!-- Generator: Adobe Illustrator 21.0.2, SVG Export Plug-In . SVG Version: 6.00 Build 0)  -->
<svg version="1.1" id="Layer_1" xmlns="http://www.w3.org/2000/svg" xmlns:xlink="http://www.w3.org/1999/xlink" x="0px" y="0px"
	 viewBox="0 0 176 32" style="enable-background:new 0 0 176 32;" xml:space="preserve">
<g>
	<path d="M21.3,21.1c0,5.3-3.2,8-9.5,8c-6.3,0-9.5-2.7-9.5-8v-2.4h7.9c0,0.1,0,0.4,0,0.7c0,0.4,0,0.7,0,0.9c0,1.7,0.5,2.6,1.6,2.6
		c1,0,1.5-0.6,1.5-1.9v-16h7.9V21.1z"/>
	<path d="M42.4,20c0,2.7-0.9,5-2.8,6.7c-1.8,1.7-4.1,2.6-6.9,2.6c-2.9,0-5.2-0.9-7-2.6c-1.8-1.7-2.7-4-2.7-6.8
		c0-2.8,0.9-5.1,2.7-6.8c1.8-1.7,4.1-2.6,7-2.6c2.9,0,5.2,0.9,7,2.6C41.5,14.8,42.4,17.1,42.4,20z M35.6,19.9c0-1.1-0.2-2.1-0.6-2.9
		c-0.5-1-1.3-1.4-2.4-1.4c-1,0-1.8,0.5-2.3,1.5c-0.4,0.8-0.6,1.7-0.6,2.8c0,1.1,0.2,2.1,0.6,2.8c0.5,1,1.3,1.5,2.3,1.5
		c1,0,1.8-0.5,2.4-1.4C35.4,22,35.6,21,35.6,19.9z"/>
	<path d="M63.8,19.8c0,2.5-0.7,4.7-2,6.4c-1.5,1.9-3.4,2.9-5.9,2.9c-2.2,0-3.9-0.8-4.9-2.5v2h-7V5.1h7.3v7.1c0.5-0.5,1.2-1,2.2-1.3
		c0.9-0.3,1.7-0.5,2.5-0.5c2.4,0,4.4,1,5.8,2.9C63.1,15.2,63.8,17.3,63.8,19.8z M56.8,19.8c0-1.1-0.2-2.1-0.6-2.8
		c-0.5-1-1.3-1.4-2.3-1.4c-1,0-1.8,0.5-2.3,1.5c-0.4,0.8-0.6,1.7-0.6,2.9c0,1.1,0.2,2.1,0.6,2.9c0.5,1,1.3,1.5,2.3,1.5
		c1,0,1.8-0.5,2.3-1.6C56.6,21.9,56.8,20.9,56.8,19.8z"/>
	<path d="M74.9,21.5h-10v-5.7h10V21.5z"/>
	<path d="M97.7,21.7c0,1.1-0.2,2.1-0.7,3.1c-0.8,1.5-1.9,2.6-3.4,3.1c-1.2,0.5-2.8,0.7-4.7,0.7H76.4V5.1h14.4c1.5,0,2.8,0.6,4,1.8
		c1.2,1.2,1.8,2.6,1.8,4.1c0,1.2-0.4,2.3-1.2,3.3c-0.8,1-1.8,1.6-3,1.8c1.5,0.2,2.7,0.8,3.7,1.9C97.2,19,97.7,20.3,97.7,21.7z
		 M90.1,20.8c0-1.4-0.9-2.1-2.6-2.1h-3.3v4.4h3.4C89.3,23.1,90.1,22.3,90.1,20.8z M89.7,12.9c0-1.4-0.8-2.1-2.3-2.1h-3v4h3
		C88.9,14.8,89.7,14.1,89.7,12.9z"/>
	<path d="M117.9,20c0,2.7-0.9,5-2.8,6.7c-1.8,1.7-4.1,2.6-6.9,2.6c-2.9,0-5.2-0.9-7-2.6c-1.8-1.7-2.7-4-2.7-6.8
		c0-2.8,0.9-5.1,2.7-6.8c1.8-1.7,4.1-2.6,7-2.6c2.9,0,5.2,0.9,7,2.6C117,14.8,117.9,17.1,117.9,20z M111.2,19.9
		c0-1.1-0.2-2.1-0.6-2.9c-0.5-1-1.3-1.4-2.4-1.4c-1,0-1.8,0.5-2.3,1.5c-0.4,0.8-0.6,1.7-0.6,2.8c0,1.1,0.2,2.1,0.6,2.8
		c0.5,1,1.3,1.5,2.3,1.5c1,0,1.8-0.5,2.4-1.4C111,22,111.2,21,111.2,19.9z"/>
	<path d="M139.1,28.7c-1.8,0.3-3.2,0.4-4.3,0.4c-1,0-1.8-0.2-2.5-0.6c-0.9-0.5-1.3-1.2-1.2-2.2c-0.4,0.9-1.2,1.6-2.6,2.2
		c-1.1,0.4-2.2,0.6-3.4,0.6c-1.7,0-3.1-0.4-4.3-1.3c-1.2-1-1.8-2.3-1.8-4c0-2.2,1.1-3.7,3.2-4.7c1-0.5,3-0.9,5.9-1.4
		c2.1-0.3,3.2-0.8,3.2-1.4c0-1.1-0.5-1.7-1.6-1.7c-1.6,0-2.4,0.7-2.4,2.1h-7c0.2-2.4,1.2-4.1,3.1-5.2c1.4-0.8,3.5-1.1,6.2-1.1
		c3.5,0,5.8,0.7,7,2.1c0.9,1.1,1.3,3,1.3,5.9c0,0.4,0,1.2,0,2.2s0,1.8,0,2.4c0,0.5,0.1,0.8,0.2,0.9c0.1,0.1,0.4,0.2,1,0.2V28.7z
		 M131.3,22.5v-2.2c-0.3,0.2-1,0.5-2,0.8c-1.1,0.3-1.8,0.6-2.2,0.8c-0.7,0.4-1,0.9-1,1.5c0,0.9,0.6,1.4,1.8,1.4
		C130.2,24.7,131.3,24,131.3,22.5z"/>
	<path d="M153.5,17.1c-0.7-0.3-1.4-0.4-2-0.4c-2.4,0-3.7,1.6-3.7,4.7v7.3h-7.3V11h7.3v2.4c1.3-1.7,2.8-2.6,4.4-2.6
		c0.5,0,0.9,0.1,1.4,0.2V17.1z"/>
	<path d="M173.6,28.7h-7v-2c-1,1.7-2.7,2.6-4.9,2.6c-2.5,0-4.5-1-5.9-2.9c-1.3-1.7-1.9-3.9-1.9-6.5c0-2.5,0.6-4.6,1.9-6.4
		c1.4-2,3.4-2.9,5.8-2.9c2.1,0,3.7,0.6,4.8,1.8V5.1h7.3V28.7z M166.6,19.6c0-1.1-0.2-2-0.6-2.7c-0.5-0.9-1.3-1.4-2.3-1.4
		c-1.1,0-1.9,0.5-2.4,1.6c-0.4,0.8-0.6,1.8-0.6,3c0,1.1,0.2,2,0.7,2.7c0.5,0.9,1.3,1.4,2.3,1.4c1,0,1.8-0.5,2.3-1.6
		C166.4,21.8,166.6,20.8,166.6,19.6z"/>
</g>
</svg>
