<?xml version="1.0" encoding="utf-8"?>
<!-- Generator: Adobe Illustrator 21.0.2, SVG Export Plug-In . SVG Version: 6.00 Build 0)  -->
<svg version="1.1" id="Layer_1" xmlns="http://www.w3.org/2000/svg" xmlns:xlink="http://www.w3.org/1999/xlink" x="0px" y="0px"
	 viewBox="0 0 176 32" style="enable-background:new 0 0 176 32;" xml:space="preserve">
<style type="text/css">
	.st0{fill:#FFFFFF;}
</style>
<g>
	<path class="st0" d="M21.1,20.1c0,5.3-3.2,8-9.5,8c-6.3,0-9.5-2.7-9.5-8v-2.4h7.9c0,0.1,0,0.4,0,0.7c0,0.4,0,0.7,0,0.9
		c0,1.7,0.5,2.6,1.6,2.6c1,0,1.5-0.6,1.5-1.9v-16h7.9V20.1z"/>
	<path class="st0" d="M42.2,19c0,2.7-0.9,5-2.8,6.7c-1.8,1.7-4.1,2.6-6.9,2.6c-2.9,0-5.2-0.9-7-2.6c-1.8-1.7-2.7-4-2.7-6.8
		c0-2.8,0.9-5.1,2.7-6.8c1.8-1.7,4.1-2.6,7-2.6c2.9,0,5.2,0.9,7,2.6C41.3,13.8,42.2,16.1,42.2,19z M35.5,18.9c0-1.1-0.2-2.1-0.6-2.9
		c-0.5-1-1.3-1.4-2.4-1.4c-1,0-1.8,0.5-2.3,1.5c-0.4,0.8-0.6,1.7-0.6,2.8c0,1.1,0.2,2.1,0.6,2.8c0.5,1,1.3,1.5,2.3,1.5
		c1,0,1.8-0.5,2.4-1.4C35.3,21,35.5,20,35.5,18.9z"/>
	<path class="st0" d="M63.6,18.8c0,2.5-0.7,4.7-2,6.4c-1.5,1.9-3.4,2.9-5.9,2.9c-2.2,0-3.9-0.8-4.9-2.5v2h-7V4.1h7.3v7.1
		c0.5-0.5,1.2-1,2.2-1.3c0.9-0.3,1.7-0.5,2.5-0.5c2.4,0,4.4,1,5.8,2.9C63,14.2,63.6,16.3,63.6,18.8z M56.7,18.8
		c0-1.1-0.2-2.1-0.6-2.8c-0.5-1-1.3-1.4-2.3-1.4c-1,0-1.8,0.5-2.3,1.5c-0.4,0.8-0.6,1.7-0.6,2.9c0,1.1,0.2,2.1,0.6,2.9
		c0.5,1,1.3,1.5,2.3,1.5c1,0,1.8-0.5,2.3-1.6C56.5,20.9,56.7,19.9,56.7,18.8z"/>
	<path class="st0" d="M74.7,20.5h-10v-5.7h10V20.5z"/>
	<path class="st0" d="M97.5,20.7c0,1.1-0.2,2.1-0.7,3.1c-0.8,1.5-1.9,2.6-3.4,3.1c-1.2,0.5-2.8,0.7-4.7,0.7H76.2V4.1h14.4
		c1.5,0,2.8,0.6,4,1.8c1.2,1.2,1.8,2.6,1.8,4.1c0,1.2-0.4,2.3-1.2,3.3c-0.8,1-1.8,1.6-3,1.8c1.5,0.2,2.7,0.8,3.7,1.9
		C97,18,97.5,19.3,97.5,20.7z M90,19.8c0-1.4-0.9-2.1-2.6-2.1h-3.3v4.4h3.4C89.1,22.1,90,21.3,90,19.8z M89.5,11.9
		c0-1.4-0.8-2.1-2.3-2.1h-3v4h3C88.7,13.8,89.5,13.1,89.5,11.9z"/>
	<path class="st0" d="M117.8,19c0,2.7-0.9,5-2.8,6.7c-1.8,1.7-4.1,2.6-6.9,2.6c-2.9,0-5.2-0.9-7-2.6c-1.8-1.7-2.7-4-2.7-6.8
		c0-2.8,0.9-5.1,2.7-6.8c1.8-1.7,4.1-2.6,7-2.6c2.9,0,5.2,0.9,7,2.6C116.9,13.8,117.8,16.1,117.8,19z M111,18.9
		c0-1.1-0.2-2.1-0.6-2.9c-0.5-1-1.3-1.4-2.4-1.4c-1,0-1.8,0.5-2.3,1.5c-0.4,0.8-0.6,1.7-0.6,2.8c0,1.1,0.2,2.1,0.6,2.8
		c0.5,1,1.3,1.5,2.3,1.5c1,0,1.8-0.5,2.4-1.4C110.8,21,111,20,111,18.9z"/>
	<path class="st0" d="M139,27.7c-1.8,0.3-3.2,0.4-4.3,0.4c-1,0-1.8-0.2-2.5-0.6c-0.9-0.5-1.3-1.2-1.2-2.2c-0.4,0.9-1.2,1.6-2.6,2.2
		c-1.1,0.4-2.2,0.6-3.4,0.6c-1.7,0-3.1-0.4-4.3-1.3c-1.2-1-1.8-2.3-1.8-4c0-2.2,1.1-3.7,3.2-4.7c1-0.5,3-0.9,5.9-1.4
		c2.1-0.3,3.2-0.8,3.2-1.4c0-1.1-0.5-1.7-1.6-1.7c-1.6,0-2.4,0.7-2.4,2.1h-7c0.2-2.4,1.2-4.1,3.1-5.2c1.4-0.8,3.5-1.1,6.2-1.1
		c3.5,0,5.8,0.7,7,2.1c0.9,1.1,1.3,3,1.3,5.9c0,0.4,0,1.2,0,2.2s0,1.8,0,2.4c0,0.5,0.1,0.8,0.2,0.9c0.1,0.1,0.4,0.2,1,0.2V27.7z
		 M131.2,21.5v-2.2c-0.3,0.2-1,0.5-2,0.8c-1.1,0.3-1.8,0.6-2.2,0.8c-0.7,0.4-1,0.9-1,1.5c0,0.9,0.6,1.4,1.8,1.4
		C130,23.7,131.2,23,131.2,21.5z"/>
	<path class="st0" d="M153.4,16.1c-0.7-0.3-1.4-0.4-2-0.4c-2.4,0-3.7,1.6-3.7,4.7v7.3h-7.3V10h7.3v2.4c1.3-1.7,2.8-2.6,4.4-2.6
		c0.5,0,0.9,0.1,1.4,0.2V16.1z"/>
	<path class="st0" d="M173.5,27.7h-7v-2c-1,1.7-2.7,2.6-4.9,2.6c-2.5,0-4.5-1-5.9-2.9c-1.3-1.7-1.9-3.9-1.9-6.5
		c0-2.5,0.6-4.6,1.9-6.4c1.4-2,3.4-2.9,5.8-2.9c2.1,0,3.7,0.6,4.8,1.8V4.1h7.3V27.7z M166.5,18.6c0-1.1-0.2-2-0.6-2.7
		c-0.5-0.9-1.3-1.4-2.3-1.4c-1.1,0-1.9,0.5-2.4,1.6c-0.4,0.8-0.6,1.8-0.6,3c0,1.1,0.2,2,0.7,2.7c0.5,0.9,1.3,1.4,2.3,1.4
		c1,0,1.8-0.5,2.3-1.6C166.3,20.8,166.5,19.8,166.5,18.6z"/>
</g>
</svg>
